<svg xmlns="http://www.w3.org/2000/svg" viewBox="0 0 463.08 565"><g id="Layer_2" data-name="Layer 2"><g id="Layer_2-2" data-name="Layer 2"><path d="M231.54,562.5c-16,0-216.89-12.44-228.45-246.22S151.54,2.5,231.54,2.5s240,80,228.44,313.78S247.54,562.5,231.54,562.5ZM250.9,455.68c-3.09,42.38-16,91-8.23,91,14.59,0,38.7-66.15,38.7-66.15,2.42-6.68,14-45.7,17.13-88.09a174.39,174.39,0,0,0,0-31.71c-4.73-48.13-11.85-45.33-46.52-110.22s-42.66-102.22-39.4-144.59,16.32-91,8.59-91c-14.59,0-39,66-39,66-2.44,6.67-14.22,45.65-17.48,88s4.74,79.7,39.41,144.59,42.5,62,46.51,110.22A218.46,218.46,0,0,1,250.9,455.68Z" style="fill:none;stroke:#362f2d;stroke-miterlimit:10;stroke-width:5px"/></g></g></svg>